<?xml version="1.0" encoding="us-ascii" standalone="no"?><svg xmlns="http://www.w3.org/2000/svg" xmlns:xlink="http://www.w3.org/1999/xlink" contentStyleType="text/css" height="824px" preserveAspectRatio="none" style="width:753px;height:824px;background:#FFFFFF;" version="1.1" viewBox="0 0 753 824" width="753px" zoomAndPan="magnify"><defs/><g><rect fill="#FFFFFF" height="413.8594" style="stroke:#181818;stroke-width:1.0;" width="10" x="612.5" y="296.7891"/><rect fill="none" height="236.1953" style="stroke:#000000;stroke-width:1.5;" width="588.5" x="82" y="258.5234"/><line style="stroke:#181818;stroke-width:0.5;stroke-dasharray:5.0,5.0;" x1="43" x2="43" y1="52.5938" y2="772.9141"/><line style="stroke:#181818;stroke-width:0.5;stroke-dasharray:5.0,5.0;" x1="135" x2="135" y1="52.5938" y2="772.9141"/><line style="stroke:#181818;stroke-width:0.5;stroke-dasharray:5.0,5.0;" x1="364" x2="364" y1="52.5938" y2="772.9141"/><line style="stroke:#181818;stroke-width:0.5;stroke-dasharray:5.0,5.0;" x1="617.5" x2="617.5" y1="52.5938" y2="772.9141"/><rect fill="#E2E2F0" height="46.5938" rx="2.5" ry="2.5" style="stroke:#181818;stroke-width:0.5;" width="77" x="5" y="5"/><text fill="#000000" font-family="sans-serif" font-size="14" lengthAdjust="spacing" textLength="45" x="21" y="24.9951">Image</text><text fill="#000000" font-family="sans-serif" font-size="14" lengthAdjust="spacing" textLength="63" x="12" y="41.292">Manager</text><rect fill="#E2E2F0" height="46.5938" rx="2.5" ry="2.5" style="stroke:#181818;stroke-width:0.5;" width="77" x="5" y="771.9141"/><text fill="#000000" font-family="sans-serif" font-size="14" lengthAdjust="spacing" textLength="45" x="21" y="791.9092">Image</text><text fill="#000000" font-family="sans-serif" font-size="14" lengthAdjust="spacing" textLength="63" x="12" y="808.2061">Manager</text><rect fill="#E2E2F0" height="46.5938" rx="2.5" ry="2.5" style="stroke:#181818;stroke-width:0.5;" width="87" x="92" y="5"/><text fill="#000000" font-family="sans-serif" font-size="14" lengthAdjust="spacing" textLength="33" x="119" y="24.9951">Task</text><text fill="#000000" font-family="sans-serif" font-size="14" lengthAdjust="spacing" textLength="73" x="99" y="41.292">Requestor</text><rect fill="#E2E2F0" height="46.5938" rx="2.5" ry="2.5" style="stroke:#181818;stroke-width:0.5;" width="87" x="92" y="771.9141"/><text fill="#000000" font-family="sans-serif" font-size="14" lengthAdjust="spacing" textLength="33" x="119" y="791.9092">Task</text><text fill="#000000" font-family="sans-serif" font-size="14" lengthAdjust="spacing" textLength="73" x="99" y="808.2061">Requestor</text><rect fill="#E2E2F0" height="46.5938" rx="2.5" ry="2.5" style="stroke:#181818;stroke-width:0.5;" width="77" x="326" y="5"/><text fill="#000000" font-family="sans-serif" font-size="14" lengthAdjust="spacing" textLength="33" x="348" y="24.9951">Task</text><text fill="#000000" font-family="sans-serif" font-size="14" lengthAdjust="spacing" textLength="63" x="333" y="41.292">Manager</text><rect fill="#E2E2F0" height="46.5938" rx="2.5" ry="2.5" style="stroke:#181818;stroke-width:0.5;" width="77" x="326" y="771.9141"/><text fill="#000000" font-family="sans-serif" font-size="14" lengthAdjust="spacing" textLength="33" x="348" y="791.9092">Task</text><text fill="#000000" font-family="sans-serif" font-size="14" lengthAdjust="spacing" textLength="63" x="333" y="808.2061">Manager</text><rect fill="#E2E2F0" height="46.5938" rx="2.5" ry="2.5" style="stroke:#181818;stroke-width:0.5;" width="86" x="574.5" y="5"/><text fill="#000000" font-family="sans-serif" font-size="14" lengthAdjust="spacing" textLength="33" x="601" y="24.9951">Task</text><text fill="#000000" font-family="sans-serif" font-size="14" lengthAdjust="spacing" textLength="72" x="581.5" y="41.292">Performer</text><rect fill="#E2E2F0" height="46.5938" rx="2.5" ry="2.5" style="stroke:#181818;stroke-width:0.5;" width="86" x="574.5" y="771.9141"/><text fill="#000000" font-family="sans-serif" font-size="14" lengthAdjust="spacing" textLength="33" x="601" y="791.9092">Task</text><text fill="#000000" font-family="sans-serif" font-size="14" lengthAdjust="spacing" textLength="72" x="581.5" y="808.2061">Performer</text><rect fill="#FFFFFF" height="413.8594" style="stroke:#181818;stroke-width:1.0;" width="10" x="612.5" y="296.7891"/><polygon fill="#181818" points="352.5,79.7266,362.5,83.7266,352.5,87.7266,356.5,83.7266" style="stroke:#181818;stroke-width:1.0;"/><line style="stroke:#181818;stroke-width:1.0;" x1="135.5" x2="358.5" y1="83.7266" y2="83.7266"/><text fill="#000000" font-family="sans-serif" font-size="13" lengthAdjust="spacing" textLength="203" x="142.5" y="78.6606">Open Event Channel [RAD-109]</text><polygon fill="#181818" points="352.5,108.8594,362.5,112.8594,352.5,116.8594,356.5,112.8594" style="stroke:#181818;stroke-width:1.0;"/><line style="stroke:#181818;stroke-width:1.0;" x1="135.5" x2="358.5" y1="112.8594" y2="112.8594"/><text fill="#000000" font-family="sans-serif" font-size="13" lengthAdjust="spacing" textLength="174" x="142.5" y="107.7935">Create Workitem [RAD-80]</text><polygon fill="#181818" points="146.5,137.9922,136.5,141.9922,146.5,145.9922,142.5,141.9922" style="stroke:#181818;stroke-width:1.0;"/><line style="stroke:#181818;stroke-width:1.0;stroke-dasharray:2.0,2.0;" x1="140.5" x2="363.5" y1="141.9922" y2="141.9922"/><text fill="#000000" font-family="sans-serif" font-size="13" lengthAdjust="spacing" textLength="92" x="152.5" y="136.9263">Workitem UID</text><line style="stroke:#181818;stroke-width:1.0;" x1="364.5" x2="406.5" y1="186.2578" y2="186.2578"/><line style="stroke:#181818;stroke-width:1.0;" x1="406.5" x2="406.5" y1="186.2578" y2="199.2578"/><line style="stroke:#181818;stroke-width:1.0;" x1="365.5" x2="406.5" y1="199.2578" y2="199.2578"/><polygon fill="#181818" points="375.5,195.2578,365.5,199.2578,375.5,203.2578,371.5,199.2578" style="stroke:#181818;stroke-width:1.0;"/><text fill="#000000" font-family="sans-serif" font-size="13" lengthAdjust="spacing" textLength="42" x="371.5" y="166.0591">assign</text><text fill="#000000" font-family="sans-serif" font-size="13" lengthAdjust="spacing" textLength="64" x="371.5" y="181.1919">Workitem</text><polygon fill="#181818" points="146.5,239.5234,136.5,243.5234,146.5,247.5234,142.5,243.5234" style="stroke:#181818;stroke-width:1.0;"/><line style="stroke:#181818;stroke-width:1.0;" x1="140.5" x2="363.5" y1="243.5234" y2="243.5234"/><text fill="#000000" font-family="sans-serif" font-size="13" lengthAdjust="spacing" textLength="205" x="152.5" y="223.3247">Send UPS Notification [RAD-87]</text><text fill="#000000" font-family="sans-serif" font-size="13" lengthAdjust="spacing" textLength="144" x="152.5" y="238.4575">(Workitem scheduled)</text><path d="M82,258.5234 L151,258.5234 L151,265.6563 L141,275.6563 L82,275.6563 L82,258.5234 " fill="#EEEEEE" style="stroke:#000000;stroke-width:1.5;"/><rect fill="none" height="236.1953" style="stroke:#000000;stroke-width:1.5;" width="588.5" x="82" y="258.5234"/><text fill="#000000" font-family="sans-serif" font-size="13" font-weight="bold" lengthAdjust="spacing" textLength="24" x="97" y="271.5903">par</text><text fill="#000000" font-family="sans-serif" font-size="11" font-weight="bold" lengthAdjust="spacing" textLength="141" x="166" y="270.7339">[Step 3:Pull Workitem]</text><polygon fill="#181818" points="375.5,292.7891,365.5,296.7891,375.5,300.7891,371.5,296.7891" style="stroke:#181818;stroke-width:1.0;"/><line style="stroke:#181818;stroke-width:1.0;" x1="369.5" x2="611.5" y1="296.7891" y2="296.7891"/><text fill="#000000" font-family="sans-serif" font-size="13" lengthAdjust="spacing" textLength="200" x="381.5" y="291.7231">Query UPS Workitem [RAD-81]</text><polygon fill="#181818" points="600.5,321.9219,610.5,325.9219,600.5,329.9219,604.5,325.9219" style="stroke:#181818;stroke-width:1.0;"/><line style="stroke:#181818;stroke-width:1.0;stroke-dasharray:2.0,2.0;" x1="364.5" x2="606.5" y1="325.9219" y2="325.9219"/><text fill="#000000" font-family="sans-serif" font-size="13" lengthAdjust="spacing" textLength="92" x="371.5" y="320.856">Workitem UID</text><polygon fill="#181818" points="375.5,351.0547,365.5,355.0547,375.5,359.0547,371.5,355.0547" style="stroke:#181818;stroke-width:1.0;"/><line style="stroke:#181818;stroke-width:1.0;" x1="369.5" x2="611.5" y1="355.0547" y2="355.0547"/><text fill="#000000" font-family="sans-serif" font-size="13" lengthAdjust="spacing" textLength="184" x="381.5" y="349.9888">Get UPS Workitem [RAD-83]</text><polygon fill="#181818" points="600.5,380.1875,610.5,384.1875,600.5,388.1875,604.5,384.1875" style="stroke:#181818;stroke-width:1.0;"/><line style="stroke:#181818;stroke-width:1.0;stroke-dasharray:2.0,2.0;" x1="364.5" x2="606.5" y1="384.1875" y2="384.1875"/><text fill="#000000" font-family="sans-serif" font-size="13" lengthAdjust="spacing" textLength="64" x="371.5" y="379.1216">Workitem</text><polygon fill="#181818" points="375.5,409.3203,365.5,413.3203,375.5,417.3203,371.5,413.3203" style="stroke:#181818;stroke-width:1.0;"/><line style="stroke:#181818;stroke-width:1.0;" x1="369.5" x2="611.5" y1="413.3203" y2="413.3203"/><text fill="#000000" font-family="sans-serif" font-size="13" lengthAdjust="spacing" textLength="199" x="381.5" y="408.2544">Claim UPS Workitem [RAD-82]</text><polygon fill="#181818" points="600.5,438.4531,610.5,442.4531,600.5,446.4531,604.5,442.4531" style="stroke:#181818;stroke-width:1.0;"/><line style="stroke:#181818;stroke-width:1.0;stroke-dasharray:2.0,2.0;" x1="364.5" x2="606.5" y1="442.4531" y2="442.4531"/><text fill="#000000" font-family="sans-serif" font-size="13" lengthAdjust="spacing" textLength="104" x="371.5" y="437.3872">Transaction UID</text><polygon fill="#181818" points="146.5,482.7188,136.5,486.7188,146.5,490.7188,142.5,486.7188" style="stroke:#181818;stroke-width:1.0;"/><line style="stroke:#181818;stroke-width:1.0;" x1="140.5" x2="363.5" y1="486.7188" y2="486.7188"/><text fill="#000000" font-family="sans-serif" font-size="13" lengthAdjust="spacing" textLength="205" x="152.5" y="466.52">Send UPS Notification [RAD-87]</text><text fill="#000000" font-family="sans-serif" font-size="13" lengthAdjust="spacing" textLength="130" x="152.5" y="481.6528">(Workitem claimed)</text><polygon fill="#181818" points="54.5,518.8516,44.5,522.8516,54.5,526.8516,50.5,522.8516" style="stroke:#181818;stroke-width:1.0;"/><line style="stroke:#181818;stroke-width:1.0;" x1="48.5" x2="611.5" y1="522.8516" y2="522.8516"/><text fill="#000000" font-family="sans-serif" font-size="13" lengthAdjust="spacing" textLength="389" x="60.5" y="517.7856">Retrieve referenced input data using [RAD-107] or [RAD-16]</text><polygon fill="#181818" points="600.5,532.8516,610.5,536.8516,600.5,540.8516,604.5,536.8516" style="stroke:#181818;stroke-width:1.0;"/><line style="stroke:#181818;stroke-width:1.0;stroke-dasharray:2.0,2.0;" x1="43.5" x2="606.5" y1="536.8516" y2="536.8516"/><line style="stroke:#181818;stroke-width:1.0;" x1="622.5" x2="664.5" y1="565.9844" y2="565.9844"/><line style="stroke:#181818;stroke-width:1.0;" x1="664.5" x2="664.5" y1="565.9844" y2="578.9844"/><line style="stroke:#181818;stroke-width:1.0;" x1="623.5" x2="664.5" y1="578.9844" y2="578.9844"/><polygon fill="#181818" points="633.5,574.9844,623.5,578.9844,633.5,582.9844,629.5,578.9844" style="stroke:#181818;stroke-width:1.0;"/><text fill="#000000" font-family="sans-serif" font-size="13" lengthAdjust="spacing" textLength="117" x="629.5" y="560.9185">Perform inference</text><polygon fill="#181818" points="54.5,604.1172,44.5,608.1172,54.5,612.1172,50.5,608.1172" style="stroke:#181818;stroke-width:1.0;"/><line style="stroke:#181818;stroke-width:1.0;" x1="48.5" x2="611.5" y1="608.1172" y2="608.1172"/><text fill="#000000" font-family="sans-serif" font-size="13" lengthAdjust="spacing" textLength="286" x="60.5" y="603.0513">Store AI Results with [RAD-108] or [RAD-43]</text><polygon fill="#181818" points="375.5,633.25,365.5,637.25,375.5,641.25,371.5,637.25" style="stroke:#181818;stroke-width:1.0;"/><line style="stroke:#181818;stroke-width:1.0;" x1="369.5" x2="611.5" y1="637.25" y2="637.25"/><text fill="#000000" font-family="sans-serif" font-size="13" lengthAdjust="spacing" textLength="208" x="381.5" y="632.1841">Update UPS Workitem [RAD-84]</text><polygon fill="#181818" points="146.5,677.5156,136.5,681.5156,146.5,685.5156,142.5,681.5156" style="stroke:#181818;stroke-width:1.0;"/><line style="stroke:#181818;stroke-width:1.0;" x1="140.5" x2="363.5" y1="681.5156" y2="681.5156"/><text fill="#000000" font-family="sans-serif" font-size="13" lengthAdjust="spacing" textLength="205" x="152.5" y="661.3169">Send UPS Notification [RAD-87]</text><text fill="#000000" font-family="sans-serif" font-size="13" lengthAdjust="spacing" textLength="113" x="152.5" y="676.4497">(Progress Report)</text><polygon fill="#181818" points="375.5,706.6484,365.5,710.6484,375.5,714.6484,371.5,710.6484" style="stroke:#181818;stroke-width:1.0;"/><line style="stroke:#181818;stroke-width:1.0;" x1="369.5" x2="616.5" y1="710.6484" y2="710.6484"/><text fill="#000000" font-family="sans-serif" font-size="13" lengthAdjust="spacing" textLength="224" x="381.5" y="705.5825">Complete UPS Workitem [RAD-85]</text><polygon fill="#181818" points="146.5,750.9141,136.5,754.9141,146.5,758.9141,142.5,754.9141" style="stroke:#181818;stroke-width:1.0;"/><line style="stroke:#181818;stroke-width:1.0;" x1="140.5" x2="363.5" y1="754.9141" y2="754.9141"/><text fill="#000000" font-family="sans-serif" font-size="13" lengthAdjust="spacing" textLength="201" x="152.5" y="734.7153">Send UPS Notification[RAD-87]</text><text fill="#000000" font-family="sans-serif" font-size="13" lengthAdjust="spacing" textLength="139" x="152.5" y="749.8481">(Workitem complete)</text><!--SRC=[bLCzRy8m4DtpAqvCPK22GWjbG4A0gWoK440TYWShES0YiLtReUg_huC3IMbKYIc9xttSFLyaLOP5J59keE6dT8zRFgVSFbK3g0P_xiagP4trSSj3_CnG6-4muMnP1whABC997IH0jHCgBK31BFIiLcjaqKDOIEGmEw55JmwKSqpW8nnFMvts2wd09WgfGNWNwiWCfWupQ1FFLbkjaGKEo-B6dvxF7PLgpVPyoozbLpepLiXZs0GhU1E6xLX43HEyqEwJBN-uIkheW76MODpC1uILGGdTOP0boTNMiuCLbiiCrVTP-ARX3l5ePDWfdoNFmNLltswwBwLUqTG9TKaTr_709PPGbjPH7tzHrufodVTa1x_c1dUc4-LUUJQMuNhmvqC8qIY69mI5ErJ88uo1SPaPYAcXa6d6zvVBxXCGglXu9fu_B_fpQkTEYoso4eLQwRIoEuemzgsbpXAZuOkPmqLwK4htR6nbj1iPv_TG4r6FtBCaWH9xXTh-8IY5CisAnKIaCi5waoVYnVXd6_xBlZRwmg7v0m00]--></g></svg>