<?xml version="1.0" encoding="UTF-8" standalone="no"?><svg xmlns="http://www.w3.org/2000/svg" xmlns:xlink="http://www.w3.org/1999/xlink" contentStyleType="text/css" height="607px" preserveAspectRatio="none" style="width:872px;height:607px;background:#FFFFFF;" version="1.1" viewBox="0 0 872 607" width="872px" zoomAndPan="magnify"><defs/><g><rect fill="#FFFFFF" height="29.1328" style="stroke:#181818;stroke-width:1.0;" width="10" x="531.5" y="124.6953"/><rect fill="#FFFFFF" height="29.1328" style="stroke:#181818;stroke-width:1.0;" width="10" x="531.5" y="240.2266"/><rect fill="#FFFFFF" height="29.1328" style="stroke:#181818;stroke-width:1.0;" width="10" x="759" y="483.1563"/><line style="stroke:#181818;stroke-width:0.5;stroke-dasharray:5.0,5.0;" x1="118" x2="118" y1="36.2969" y2="572.4219"/><line style="stroke:#181818;stroke-width:0.5;stroke-dasharray:5.0,5.0;" x1="536" x2="536" y1="36.2969" y2="572.4219"/><line style="stroke:#181818;stroke-width:0.5;stroke-dasharray:5.0,5.0;" x1="764" x2="764" y1="36.2969" y2="572.4219"/><rect fill="#E2E2F0" height="30.2969" rx="2.5" ry="2.5" style="stroke:#181818;stroke-width:0.5;" width="227" x="5" y="5"/><text fill="#000000" font-family="sans-serif" font-size="14" lengthAdjust="spacing" textLength="213" x="12" y="24.9951">Imaging Document Consumer</text><rect fill="#E2E2F0" height="30.2969" rx="2.5" ry="2.5" style="stroke:#181818;stroke-width:0.5;" width="227" x="5" y="571.4219"/><text fill="#000000" font-family="sans-serif" font-size="14" lengthAdjust="spacing" textLength="213" x="12" y="591.417">Imaging Document Consumer</text><rect fill="#E2E2F0" height="30.2969" rx="2.5" ry="2.5" style="stroke:#181818;stroke-width:0.5;" width="231" x="421" y="5"/><text fill="#000000" font-family="sans-serif" font-size="14" lengthAdjust="spacing" textLength="217" x="428" y="24.9951">Imaging Document Responder</text><rect fill="#E2E2F0" height="30.2969" rx="2.5" ry="2.5" style="stroke:#181818;stroke-width:0.5;" width="231" x="421" y="571.4219"/><text fill="#000000" font-family="sans-serif" font-size="14" lengthAdjust="spacing" textLength="217" x="428" y="591.417">Imaging Document Responder</text><rect fill="#E2E2F0" height="30.2969" rx="2.5" ry="2.5" style="stroke:#181818;stroke-width:0.5;" width="204" x="662" y="5"/><text fill="#000000" font-family="sans-serif" font-size="14" lengthAdjust="spacing" textLength="190" x="669" y="24.9951">Imaging Document Source</text><rect fill="#E2E2F0" height="30.2969" rx="2.5" ry="2.5" style="stroke:#181818;stroke-width:0.5;" width="204" x="662" y="571.4219"/><text fill="#000000" font-family="sans-serif" font-size="14" lengthAdjust="spacing" textLength="190" x="669" y="591.417">Imaging Document Source</text><rect fill="#FFFFFF" height="29.1328" style="stroke:#181818;stroke-width:1.0;" width="10" x="531.5" y="124.6953"/><rect fill="#FFFFFF" height="29.1328" style="stroke:#181818;stroke-width:1.0;" width="10" x="531.5" y="240.2266"/><rect fill="#FFFFFF" height="29.1328" style="stroke:#181818;stroke-width:1.0;" width="10" x="759" y="483.1563"/><line style="stroke:#181818;stroke-width:1.0;" x1="118.5" x2="160.5" y1="67.4297" y2="67.4297"/><line style="stroke:#181818;stroke-width:1.0;" x1="160.5" x2="160.5" y1="67.4297" y2="80.4297"/><line style="stroke:#181818;stroke-width:1.0;" x1="119.5" x2="160.5" y1="80.4297" y2="80.4297"/><polygon fill="#181818" points="129.5,76.4297,119.5,80.4297,129.5,84.4297,125.5,80.4297" style="stroke:#181818;stroke-width:1.0;"/><text fill="#000000" font-family="sans-serif" font-size="13" font-style="italic" lengthAdjust="spacing" textLength="90" x="125.5" y="62.3638">Select Patient</text><polygon fill="#181818" points="519.5,120.6953,529.5,124.6953,519.5,128.6953,523.5,124.6953" style="stroke:#181818;stroke-width:1.0;"/><line style="stroke:#181818;stroke-width:1.0;" x1="118.5" x2="525.5" y1="124.6953" y2="124.6953"/><text fill="#000000" font-family="sans-serif" font-size="13" lengthAdjust="spacing" textLength="170" x="125.5" y="104.4966">QIDO-RS Query [RAD-129]</text><text fill="#000000" font-family="sans-serif" font-size="13" lengthAdjust="spacing" textLength="241" x="125.5" y="119.6294">(request studies for selected patient)</text><polygon fill="#181818" points="129.5,149.8281,119.5,153.8281,129.5,157.8281,125.5,153.8281" style="stroke:#181818;stroke-width:1.0;"/><line style="stroke:#181818;stroke-width:1.0;stroke-dasharray:2.0,2.0;" x1="123.5" x2="535.5" y1="153.8281" y2="153.8281"/><text fill="#000000" font-family="sans-serif" font-size="13" lengthAdjust="spacing" textLength="389" x="135.5" y="148.7622">Return query results (including retrieve location references)</text><line style="stroke:#181818;stroke-width:1.0;" x1="118.5" x2="160.5" y1="182.9609" y2="182.9609"/><line style="stroke:#181818;stroke-width:1.0;" x1="160.5" x2="160.5" y1="182.9609" y2="195.9609"/><line style="stroke:#181818;stroke-width:1.0;" x1="119.5" x2="160.5" y1="195.9609" y2="195.9609"/><polygon fill="#181818" points="129.5,191.9609,119.5,195.9609,129.5,199.9609,125.5,195.9609" style="stroke:#181818;stroke-width:1.0;"/><text fill="#000000" font-family="sans-serif" font-size="13" font-style="italic" lengthAdjust="spacing" textLength="133" x="125.5" y="177.895">Select Study to view</text><polygon fill="#181818" points="519.5,236.2266,529.5,240.2266,519.5,244.2266,523.5,240.2266" style="stroke:#181818;stroke-width:1.0;"/><line style="stroke:#181818;stroke-width:1.0;" x1="118.5" x2="525.5" y1="240.2266" y2="240.2266"/><text fill="#000000" font-family="sans-serif" font-size="13" lengthAdjust="spacing" textLength="170" x="125.5" y="220.0278">QIDO-RS Query [RAD-129]</text><text fill="#000000" font-family="sans-serif" font-size="13" lengthAdjust="spacing" textLength="171" x="125.5" y="235.1606">(request image metadata)</text><polygon fill="#181818" points="129.5,265.3594,119.5,269.3594,129.5,273.3594,125.5,269.3594" style="stroke:#181818;stroke-width:1.0;"/><line style="stroke:#181818;stroke-width:1.0;stroke-dasharray:2.0,2.0;" x1="123.5" x2="535.5" y1="269.3594" y2="269.3594"/><text fill="#000000" font-family="sans-serif" font-size="13" lengthAdjust="spacing" textLength="155" x="135.5" y="264.2935">Return image metadata</text><line style="stroke:#181818;stroke-width:1.0;" x1="118.5" x2="160.5" y1="298.4922" y2="298.4922"/><line style="stroke:#181818;stroke-width:1.0;" x1="160.5" x2="160.5" y1="298.4922" y2="311.4922"/><line style="stroke:#181818;stroke-width:1.0;" x1="119.5" x2="160.5" y1="311.4922" y2="311.4922"/><polygon fill="#181818" points="129.5,307.4922,119.5,311.4922,129.5,315.4922,125.5,311.4922" style="stroke:#181818;stroke-width:1.0;"/><text fill="#000000" font-family="sans-serif" font-size="13" font-style="italic" lengthAdjust="spacing" textLength="258" x="125.5" y="293.4263">Identify initial image/frames to retrieve</text><polygon fill="#181818" points="752,336.625,762,340.625,752,344.625,756,340.625" style="stroke:#181818;stroke-width:1.0;"/><line style="stroke:#181818;stroke-width:1.0;" x1="118.5" x2="758" y1="340.625" y2="340.625"/><text fill="#000000" font-family="sans-serif" font-size="13" lengthAdjust="spacing" textLength="605" x="125.5" y="335.5591">WADO-RS Retrieve [RAD-107] for identified initial study/series/instances/frames activate IDS</text><polygon fill="#181818" points="129.5,365.7578,119.5,369.7578,129.5,373.7578,125.5,369.7578" style="stroke:#181818;stroke-width:1.0;"/><line style="stroke:#181818;stroke-width:1.0;stroke-dasharray:2.0,2.0;" x1="123.5" x2="763" y1="369.7578" y2="369.7578"/><text fill="#000000" font-family="sans-serif" font-size="13" lengthAdjust="spacing" textLength="95" x="135.5" y="364.6919">Return images</text><line style="stroke:#181818;stroke-width:1.0;" x1="118.5" x2="160.5" y1="398.8906" y2="398.8906"/><line style="stroke:#181818;stroke-width:1.0;" x1="160.5" x2="160.5" y1="398.8906" y2="411.8906"/><line style="stroke:#181818;stroke-width:1.0;" x1="119.5" x2="160.5" y1="411.8906" y2="411.8906"/><polygon fill="#181818" points="129.5,407.8906,119.5,411.8906,129.5,415.8906,125.5,411.8906" style="stroke:#181818;stroke-width:1.0;"/><text fill="#000000" font-family="sans-serif" font-size="13" font-style="italic" lengthAdjust="spacing" textLength="87" x="125.5" y="393.8247">Show Images</text><line style="stroke:#181818;stroke-width:1.0;" x1="118.5" x2="160.5" y1="441.0234" y2="441.0234"/><line style="stroke:#181818;stroke-width:1.0;" x1="160.5" x2="160.5" y1="441.0234" y2="454.0234"/><line style="stroke:#181818;stroke-width:1.0;" x1="119.5" x2="160.5" y1="454.0234" y2="454.0234"/><polygon fill="#181818" points="129.5,450.0234,119.5,454.0234,129.5,458.0234,125.5,454.0234" style="stroke:#181818;stroke-width:1.0;"/><text fill="#000000" font-family="sans-serif" font-size="13" font-style="italic" lengthAdjust="spacing" textLength="363" x="125.5" y="435.9575">User interaction triggers other image/frames to retrieve</text><polygon fill="#181818" points="747,479.1563,757,483.1563,747,487.1563,751,483.1563" style="stroke:#181818;stroke-width:1.0;"/><line style="stroke:#181818;stroke-width:1.0;" x1="118.5" x2="753" y1="483.1563" y2="483.1563"/><text fill="#000000" font-family="sans-serif" font-size="13" lengthAdjust="spacing" textLength="365" x="125.5" y="478.0903">WADO-RS Retrieve [RAD-107] for study/series/instances</text><polygon fill="#181818" points="129.5,508.2891,119.5,512.2891,129.5,516.2891,125.5,512.2891" style="stroke:#181818;stroke-width:1.0;"/><line style="stroke:#181818;stroke-width:1.0;stroke-dasharray:2.0,2.0;" x1="123.5" x2="763" y1="512.2891" y2="512.2891"/><text fill="#000000" font-family="sans-serif" font-size="13" lengthAdjust="spacing" textLength="95" x="135.5" y="507.2231">Return images</text><line style="stroke:#181818;stroke-width:1.0;" x1="118.5" x2="160.5" y1="541.4219" y2="541.4219"/><line style="stroke:#181818;stroke-width:1.0;" x1="160.5" x2="160.5" y1="541.4219" y2="554.4219"/><line style="stroke:#181818;stroke-width:1.0;" x1="119.5" x2="160.5" y1="554.4219" y2="554.4219"/><polygon fill="#181818" points="129.5,550.4219,119.5,554.4219,129.5,558.4219,125.5,554.4219" style="stroke:#181818;stroke-width:1.0;"/><text fill="#000000" font-family="sans-serif" font-size="13" font-style="italic" lengthAdjust="spacing" textLength="87" x="125.5" y="536.356">Show Images</text><!--MD5=[667005f69a4145f589a32b546485ad2d]
@startuml
participant "Imaging Document Consumer" as IDC
participant "Imaging Document Responder" as IDR
participant "Imaging Document Source" as IDS

IDC->IDC: //Select Patient//
IDC->IDR: QIDO-RS Query [RAD-129]\n(request studies for selected patient)
activate IDR
IDR- ->IDC: Return query results (including retrieve location references)
deactivate IDR

IDC->IDC: //Select Study to view//
IDC->IDR: QIDO-RS Query [RAD-129]\n(request image metadata)
activate IDR
IDR- ->IDC: Return image metadata
deactivate IDR

IDC->IDC: //Identify initial image/frames to retrieve//
IDC->IDS: WADO-RS Retrieve [RAD-107] for identified initial study/series/instances/frames activate IDS
IDS- ->IDC: Return images
deactivate IDS

IDC->IDC: //Show Images//
IDC->IDC: //User interaction triggers other image/frames to retrieve//
IDC->IDS: WADO-RS Retrieve [RAD-107] for study/series/instances
activate IDS
IDS- ->IDC: Return images
deactivate IDS
IDC->IDC: //Show Images//
@enduml

PlantUML version 1.2022.12(Sun Oct 23 20:12:26 CEST 2022)
(GPL source distribution)
Java Runtime: OpenJDK Runtime Environment
JVM: OpenJDK 64-Bit Server VM
Default Encoding: UTF-8
Language: en
Country: US
--></g></svg>
